<svg width="32" height="35.3" viewBox="0 0 8.467 9.34" xmlns="http://www.w3.org/2000/svg"><path d="M-124.395 266.73v1.303m3.473-1.303v1.303m0-.652c1.446.078 2.171.63 2.171 2.67v2.684c0 1.789-.434 2.683-2.605 2.683h-2.605c-2.17 0-2.605-.894-2.605-2.683v-2.683c0-2.041.725-2.588 2.17-2.67zm2.062 6.122h-7.598" stroke="#292d32" stroke-width=".651" stroke-miterlimit="10" stroke-linecap="round" stroke-linejoin="round" style="fill:none;stroke:#666;stroke-opacity:1" transform="translate(126.892 -266.404)"/><path d="M-122.658 269.444c-.534 0-.986.29-.986.855 0 .27.126.473.317.604a.802.802 0 0 0-.417.703c0 .538.413.873 1.086.873.668 0 1.085-.335 1.085-.873a.793.793 0 0 0-.421-.703.701.701 0 0 0 .317-.604c0-.564-.447-.855-.981-.855zm0 1.233c-.226 0-.391-.135-.391-.348 0-.217.165-.343.39-.343.226 0 .391.126.391.343 0 .213-.165.348-.39.348zm0 1.263c-.287 0-.495-.143-.495-.404 0-.26.208-.399.495-.399.286 0 .495.143.495.4 0 .26-.209.403-.495.403z" fill="#292d32" style="fill:#666;fill-opacity:1;stroke-width:.434188" transform="translate(126.892 -266.404)"/></svg>