<?xml version="1.0" encoding="UTF-8" standalone="no"?>
<svg
   width="32"
   height="32"
   viewBox="0 0 8.467 8.467"
   version="1.1"
   id="svg4"
   sodipodi:docname="time.svg"
   inkscape:version="1.2.1 (9c6d41e410, 2022-07-14)"
   xmlns:inkscape="http://www.inkscape.org/namespaces/inkscape"
   xmlns:sodipodi="http://sodipodi.sourceforge.net/DTD/sodipodi-0.dtd"
   xmlns="http://www.w3.org/2000/svg"
   xmlns:svg="http://www.w3.org/2000/svg">
  <defs
     id="defs8" />
  <sodipodi:namedview
     id="namedview6"
     pagecolor="#ffffff"
     bordercolor="#000000"
     borderopacity="0.25"
     inkscape:showpageshadow="2"
     inkscape:pageopacity="0.0"
     inkscape:pagecheckerboard="0"
     inkscape:deskcolor="#d1d1d1"
     showgrid="false"
     inkscape:zoom="20.125"
     inkscape:cx="16.024845"
     inkscape:cy="16"
     inkscape:window-width="1600"
     inkscape:window-height="827"
     inkscape:window-x="-9"
     inkscape:window-y="-9"
     inkscape:window-maximized="1"
     inkscape:current-layer="svg4" />
  <path
     d="M9 24H1a1 1 0 0 1 0-2h8a1 1 0 0 1 0 2zm-2-4H1a1 1 0 0 1 0-2h6a1 1 0 0 1 0 2zm-2-4H1a1 1 0 0 1 0-2h4a1 1 0 0 1 0 2zm8 7.955a1.001 1.001 0 0 1-.089-2A10 10 0 1 0 2.041 11.09a1 1 0 0 1-1.992-.18A12 12 0 0 1 24 12a11.934 11.934 0 0 1-10.91 11.951.917.917 0 0 1-.09.004ZM12 6a1 1 0 0 0-1 1v5a1 1 0 0 0 .293.707l3 3a1 1 0 0 0 1.414-1.414L13 11.586V7a1 1 0 0 0-1-1Z"
     style="fill:#666666;fill-opacity:1"
     transform="matrix(.35278 0 0 .35268 0 .002)"
     id="path2" />
</svg>
